<svg width="800" height="600" xmlns="http://www.w3.org/2000/svg">
 <!-- Created with Method Draw - http://github.com/duopixel/Method-Draw/ -->
 <g>
  <title>background</title>
  <rect x="-1" y="-0.39396" width="802" height="602" id="canvas_background" fill="#fff"/>
  <g id="canvasGrid" display="none">
   <rect id="svg_1" width="800" height="600" x="0" y="0.60604" stroke-width="0" fill="url(#gridpattern)"/>
  </g>
 </g>
 <g>
  <title>Layer 1</title>
  <!-- Created with Method Draw - http://github.com/duopixel/Method-Draw/ -->
  <defs transform="translate(-7.87851, 2.42416)">
   <filter height="200%" width="200%" y="-50%" x="-50%" id="svg_408">
    <feGaussianBlur stdDeviation="0"/>
   </filter>
  </defs>
  <g id="svg_464" transform="matrix(0.829938, 0, 0, 0.725789, -1247.69, -443.154)">
   <title>background</title>
  </g>
  <g id="svg_465" transform="matrix(0.829938, 0, 0, 0.725789, -1247.69, -443.154)">
   <title>Layer 1</title>
   <g id="svg_235">
    <g id="svg_236">
     <g id="svg_244">
      <path opacity="0.2" fill="none" id="svg_462" d="m1803.5943,1027.49314l0,37.47983m78.37083,-376.46871l0,33.18846l0,-33.17886l0,-0.0096zm-70.57896,34.59012l98.99301,0l-98.99301,0zm42.16491,0l0,38.56467l0,-38.56467zm-42.16491,38.56467l157.64579,0l-157.64579,0zm87.06683,0l0,37.46062l0,-37.46062zm-111.80686,37.44142l141.14969,0l-141.14969,0zm74.24475,0l0,37.47022l0,-37.47022zm36.16483,117.79648l0,33.17886l0,-33.17886zm70.57074,34.58051l-98.98479,0l98.97657,0l0.00822,0zm-42.14847,0l0,38.53587l0,-38.53587zm42.14847,38.53587l-157.64579,0l157.64579,0zm-87.06683,0l0,37.47022l0,-37.47022zm111.81508,37.47983l-141.15791,0l141.15791,0zm-74.23654,0l0,37.47983l0,-37.47983zm-280.64731,-278.39139l0,33.18846l0,-33.18846zm70.57074,34.59012l-98.99301,0l99.00123,0l-0.00822,0zm-42.16491,0l0,38.54547l0,-38.54547zm42.16491,38.54547l-157.63757,0l157.64579,0l-0.00822,0zm-87.07505,0l0,37.47022l0,-37.47022zm111.8233,37.47022l-141.14969,0l141.14969,0zm-74.24475,0l0,37.46062l0,-37.46062zm123.94674,57.19897l0,33.17886l0,-33.17886zm70.57074,34.58051l-98.97657,0l98.97657,0zm-42.16491,0l0,38.53587l0,-38.53587zm42.16491,38.53587l-157.64579,0l157.64579,0zm-87.06683,0l0,37.47022l0,-37.47022zm111.8233,37.47022l-141.16613,0l141.15791,0l0.00822,0z" stroke-width="3" stroke-linejoin="round" stroke-linecap="round" stroke="#455A7F"/>
      <g opacity="0.7" filter="url(#svg_408)" id="svg_407">
       <g id="svg_410">
        <path fill="#38a85b" fill-rule="nonzero" id="svg_461" d="m2179.12123,1127.961l-14.90936,-0.13721l1.29189,-153.33643l14.90936,0.13721l-1.29189,153.33643"/>
        <path fill="#38a85b" fill-rule="nonzero" id="svg_460" d="m2197.93118,950.23511c-0.21247,31.29624 -25.10447,49.07126 -25.10447,49.07126c0,0 -24.64498,-18.17465 -24.42785,-49.47085c0.21712,-31.2962 25.10447,-49.07126 25.10447,-49.07126c0,0 24.64498,18.17465 24.42785,49.47085"/>
        <path fill="#307d47" fill-rule="nonzero" id="svg_459" d="m2172.87143,992.34225c-0.76804,-0.00707 -1.39191,-0.55133 -1.38629,-1.21839l0.55028,-79.67916c0.00562,-0.66706 0.63394,-1.20382 1.40663,-1.1967l0,0c0.76804,0.00707 1.39191,0.55133 1.38629,1.21839l-0.55028,79.67916c-0.00562,0.66706 -0.6339,1.1998 -1.40663,1.1967l0,0"/>
        <path fill="#307d47" fill-rule="nonzero" id="svg_458" d="m2173.79615,965.46517l-0.86359,-0.26917c-0.60164,-0.41947 -0.69765,-1.1799 -0.21383,-1.69387l16.30038,-17.44015c0.48385,-0.51799 1.36432,-0.59428 1.96133,-0.17887c0.60164,0.41947 0.69765,1.1799 0.2138,1.69789l-16.29569,17.43618l-1.10239,0.44799"/>
        <path fill="#307d47" fill-rule="nonzero" id="svg_457" d="m2173.92575,946.76702l-0.87284,-0.27729c-0.59695,-0.42345 -0.68365,-1.18379 -0.19518,-1.69772l11.31922,-11.8999c0.48847,-0.51393 1.3689,-0.5862 1.96585,-0.16275c0.59695,0.42345 0.68365,1.18379 0.19518,1.69772l-11.31922,11.8999l-1.09302,0.44004"/>
        <path fill="#307d47" fill-rule="nonzero" id="svg_456" d="m2171.89434,943.10732c-0.43755,-0.00403 -0.86893,-0.18884 -1.13613,-0.52084l-8.66571,-10.76165c-0.44229,-0.5466 -0.28701,-1.29669 0.34464,-1.67668c0.63162,-0.37597 1.50567,-0.24334 1.94793,0.30728l8.66109,10.75759c0.44229,0.5466 0.28697,1.3007 -0.34464,1.67668l-0.80718,0.21762"/>
        <path fill="#307d47" fill-rule="nonzero" id="svg_455" d="m2171.75949,962.42833l-1.09926,-0.47629l-15.07907,-17.0136c-0.47036,-0.53079 -0.35693,-1.28527 0.2563,-1.68954c0.61323,-0.40427 1.48756,-0.30379 1.95791,0.227l15.08372,17.01364c0.4657,0.53075 0.35228,1.28523 -0.26096,1.6895l-0.85865,0.2493"/>
        <path fill="#307d47" fill-rule="nonzero" id="svg_454" d="m2171.6392,980.02141l-0.93763,-0.32209l-9.82606,-7.8547c-0.56875,-0.45534 -0.60424,-1.21521 -0.07874,-1.70468c0.5255,-0.48947 1.41019,-0.51348 1.97432,-0.06221l9.82141,7.85466c0.56878,0.45132 0.60424,1.21521 0.08343,1.70071l-1.03672,0.38832"/>
        <path fill="#307d47" fill-rule="nonzero" id="svg_453" d="m2173.67609,983.03012l-1.09464,-0.47223c-0.47039,-0.52677 -0.35693,-1.28527 0.25165,-1.68959l9.76522,-6.47278c0.60858,-0.40431 1.48756,-0.30379 1.95795,0.22298c0.47036,0.53079 0.35693,1.28527 -0.25165,1.68959l-9.76522,6.47278l-0.86331,0.24926"/>
        <path fill="#307d47" fill-rule="nonzero" id="svg_452" d="m2174.043,929.5356l-0.75245,-0.19983c-0.64401,-0.3636 -0.8239,-1.11274 -0.40492,-1.6675l5.59241,-7.36719c0.42367,-0.55873 1.28617,-0.71154 1.93014,-0.34393c0.64866,0.36364 0.82856,1.11279 0.40492,1.6675l-5.58779,7.37125c-0.2683,0.35118 -0.72148,0.54393 -1.18231,0.53969"/>
        <path fill="#307d47" fill-rule="nonzero" id="svg_451" d="m2172.00996,926.06878c-0.46548,-0.00428 -0.9153,-0.20936 -1.17755,-0.57748l-4.51797,-6.339c-0.40485,-0.57037 -0.19843,-1.31195 0.45622,-1.65957c0.65465,-0.34763 1.51437,-0.17093 1.92388,0.39949l4.51328,6.34297c0.40488,0.56635 0.20308,1.31199 -0.45622,1.65957l-0.74164,0.17402"/>
        <path fill="#38a85b" fill-rule="nonzero" id="svg_450" d="m2151.38073,981.57912c23.84944,23.6409 18.89198,51.23237 18.89198,51.23237c0,0 -32.35241,0.42965 -56.19719,-23.2112c-23.84944,-23.6409 -18.89663,-51.23241 -18.89663,-51.23241c0,0 32.35241,-0.42965 56.20185,23.21125"/>
        <path fill="#307d47" fill-rule="nonzero" id="svg_449" d="m2164.03939,1027.84318l-1.04391,-0.4155l-60.71768,-60.19336c-0.50783,-0.503 -0.45023,-1.26202 0.13069,-1.69874c0.58561,-0.44069 1.46493,-0.38036 1.97279,0.11863l60.71768,60.19336c0.50783,0.503 0.44557,1.26198 -0.13535,1.6987l-0.92423,0.29692"/>
        <path fill="#307d47" fill-rule="nonzero" id="svg_448" d="m2144.10834,1007.11579c-0.73546,-0.00677 -1.35035,-0.51076 -1.38217,-1.15405l-1.20297,-22.42377c-0.03631,-0.66343 0.55963,-1.22459 1.32798,-1.25369c0.78211,-0.00486 1.42503,0.48733 1.46134,1.15076l1.20297,22.42377c0.03627,0.66745 -0.55966,1.22861 -1.33266,1.25767l-0.07448,-0.00069"/>
        <path fill="#307d47" fill-rule="nonzero" id="svg_447" d="m2129.86148,992.9913c-0.74477,-0.00685 -1.35959,-0.51888 -1.38673,-1.16615l-0.67082,-15.41415c-0.03165,-0.66339 0.56894,-1.22451 1.34187,-1.24553c0.74528,-0.05342 1.41562,0.4993 1.44727,1.16269l0.67082,15.41415c0.03162,0.66741 -0.56894,1.22451 -1.34191,1.24954l-0.06051,-0.00056"/>
        <path fill="#307d47" fill-rule="nonzero" id="svg_446" d="m2125.53158,991.40423l-0.32091,-0.0351l-14.72587,-3.12951c-0.74814,-0.1596 -1.20813,-0.81487 -1.0258,-1.46022c0.17768,-0.64539 0.92587,-1.0444 1.68328,-0.88069l14.73053,3.12955c0.74814,0.1596 1.20817,0.81085 1.0258,1.46022c-0.15363,0.55318 -0.73397,0.92158 -1.36703,0.91576"/>
        <path fill="#307d47" fill-rule="nonzero" id="svg_445" d="m2140.25861,1005.99931l-0.2605,-0.02249l-24.31614,-4.16218c-0.75772,-0.12754 -1.25512,-0.76306 -1.1053,-1.41674c0.14516,-0.65372 0.87494,-1.07702 1.63731,-0.94944l24.32079,4.16223c0.75768,0.13156 1.25047,0.76302 1.10065,1.4167c-0.13056,0.5775 -0.72048,0.97797 -1.37681,0.97193"/>
        <path fill="#307d47" fill-rule="nonzero" id="svg_444" d="m2153.66061,1019.28815l-0.01862,-0.00017l-13.36261,-0.28373c-0.77263,-0.01515 -1.38246,-0.56731 -1.36753,-1.23429c0.01486,-0.65894 0.64308,-1.18364 1.40646,-1.17661l0.01862,0.00017l13.36726,0.28377c0.76794,0.01912 1.38243,0.57133 1.36288,1.23425c-0.0149,0.66296 -0.64308,1.18364 -1.40646,1.17661"/>
        <path fill="#307d47" fill-rule="nonzero" id="svg_443" d="m2157.49655,1020.38441l-0.25585,-0.02245c-0.75772,-0.12754 -1.2505,-0.759 -1.10534,-1.41272l2.32716,-10.44748c0.14516,-0.65372 0.87966,-1.08501 1.63265,-0.94948c0.75772,0.12754 1.25516,0.75904 1.10999,1.41277l-2.32716,10.44748c-0.13056,0.5775 -0.72048,0.97797 -1.38146,0.97189"/>
        <path fill="#307d47" fill-rule="nonzero" id="svg_442" d="m2116.72719,979.97418c-0.67495,-0.00621 -1.26717,-0.43765 -1.36922,-1.03337l-1.47658,-8.73433c-0.11082,-0.6601 0.4157,-1.27013 1.17994,-1.36356c0.75493,-0.09352 1.47263,0.36319 1.58345,1.02328l1.47658,8.73433c0.11085,0.65608 -0.4157,1.27013 -1.17994,1.36356l-0.21422,0.01008"/>
        <path fill="#307d47" fill-rule="nonzero" id="svg_441" d="m2112.54967,978.53319l-0.39525,-0.05186l-8.23989,-2.18167c-0.73849,-0.1997 -1.1518,-0.87062 -0.92764,-1.50754c0.22416,-0.63692 0.99994,-0.99549 1.73846,-0.79981l8.23986,2.18569c0.73852,0.19568 1.15646,0.87066 0.9323,1.50758c-0.18594,0.52073 -0.74271,0.85318 -1.34783,0.84761"/>
        <path fill="#38a85b" fill-rule="nonzero" id="svg_440" d="m2230.49619,1020.16005c-24.59553,22.92177 -56.9186,21.52717 -56.9186,21.52717c0,0 -4.06778,-27.72678 20.52772,-50.64453c24.59553,-22.92177 56.9186,-21.52717 56.9186,-21.52717c0,0 4.06781,27.72276 -20.52772,50.64453"/>
        <path fill="#307d47" fill-rule="nonzero" id="svg_439" d="m2179.99078,1036.90764l-0.93763,-0.32209c-0.5641,-0.45529 -0.59956,-1.21919 -0.07874,-1.70468l62.61957,-58.35498c0.5255,-0.48947 1.41022,-0.5175 1.97432,-0.06221c0.56878,0.45132 0.60424,1.21521 0.07878,1.70067l-62.61961,58.359l-1.03669,0.3843"/>
        <path fill="#307d47" fill-rule="nonzero" id="svg_438" d="m2201.65987,1017.65621c-0.67029,-0.00617 -1.26255,-0.43359 -1.36464,-1.02529c-0.12013,-0.66018 0.40177,-1.27427 1.16604,-1.37173l25.68762,-3.36039c0.76427,-0.09745 1.47735,0.35519 1.59751,1.01136c0.11547,0.66014 -0.40643,1.27423 -1.16607,1.37574l-25.69224,3.35633l-0.22822,0.01397"/>
        <path fill="#307d47" fill-rule="nonzero" id="svg_437" d="m2216.35527,1003.95884c-0.67495,-0.00621 -1.26717,-0.43765 -1.36922,-1.03337c-0.11082,-0.6601 0.4157,-1.27013 1.17994,-1.36356l17.68006,-2.17621c0.75493,-0.09352 1.47263,0.36319 1.58345,1.02328c0.11082,0.6601 -0.4157,1.27013 -1.17994,1.36356l-17.68006,2.17621l-0.21422,0.01008"/>
        <path fill="#307d47" fill-rule="nonzero" id="svg_436" d="m2217.71001,1000.08113l-0.17678,-0.01368c-0.76271,-0.08739 -1.30225,-0.69518 -1.19894,-1.3533l1.98062,-12.96643c0.09868,-0.66219 0.79152,-1.12199 1.5682,-1.03447c0.76268,0.09141 1.30225,0.69518 1.19891,1.35732l-1.98062,12.96643c-0.09359,0.60999 -0.69782,1.05052 -1.39138,1.04413"/>
        <path fill="#307d47" fill-rule="nonzero" id="svg_435" d="m2202.52665,1014.23215l-0.11168,-0.00505c-0.7676,-0.05931 -1.33989,-0.6473 -1.27379,-1.30979l2.11139,-21.30418c0.06144,-0.66253 0.74531,-1.1626 1.50816,-1.09128c0.76764,0.05529 1.33992,0.64328 1.27383,1.30577l-2.11139,21.30418c-0.06117,0.63038 -0.67502,1.10699 -1.39651,1.10035"/>
        <path fill="#307d47" fill-rule="nonzero" id="svg_434" d="m2188.69464,1027.11764c-0.71219,-0.00655 -1.31801,-0.48233 -1.37789,-1.10981l-1.15069,-11.50026c-0.06424,-0.66369 0.50394,-1.2452 1.27249,-1.29841c0.75934,-0.06535 1.44409,0.43526 1.51298,1.09899l1.14601,11.50424c0.06889,0.66373 -0.50394,1.2452 -1.27249,1.29841l-0.1304,0.00684"/>
        <path fill="#307d47" fill-rule="nonzero" id="svg_433" d="m2200.14723,1031.43471l-0.10703,-0.005l-12.28662,-0.91281c-0.77226,-0.05935 -1.33992,-0.64328 -1.27848,-1.30581c0.0661,-0.66249 0.722,-1.1588 1.50823,-1.09932l12.28658,0.91683c0.77229,0.05533 1.33992,0.64328 1.27848,1.30581c-0.06117,0.63038 -0.67967,1.10694 -1.40117,1.1003"/>
        <path fill="#307d47" fill-rule="nonzero" id="svg_432" d="m2229.89642,991.33993c-0.61909,-0.0057 -1.17934,-0.36451 -1.34235,-0.90854c-0.19009,-0.64475 0.25767,-1.29971 1.0039,-1.46565l9.89657,-2.17149c0.75085,-0.16188 1.50636,0.22686 1.7011,0.87165c0.19009,0.64475 -0.25767,1.29971 -1.0039,1.46565l-9.89657,2.17149l-0.35876,0.03689"/>
        <path fill="#307d47" fill-rule="nonzero" id="svg_431" d="m2231.09636,987.60146l-0.25122,-0.01839c-0.75772,-0.12754 -1.25516,-0.75904 -1.10999,-1.41277l1.60702,-7.29938c0.14051,-0.65377 0.87032,-1.08108 1.63269,-0.9535c0.7531,0.12348 1.2505,0.759 1.10999,1.41277l-1.60698,7.29536c-0.12593,0.58156 -0.72051,0.98199 -1.3815,0.9759"/>
        <path fill="#38a85b" fill-rule="nonzero" id="svg_430" d="m2241.63529,1098.70499c-27.05381,20.75352 -66.14886,9.81149 -66.14886,9.81149c0,0 -8.01174,-34.78749 19.04208,-55.54061c27.05381,-20.75312 66.14883,-9.80788 66.14883,-9.80788c0,0 8.01177,34.78387 -19.04204,55.53699"/>
        <path fill="#307d47" fill-rule="nonzero" id="svg_429" d="m2182.54194,1104.30182l-1.03001,-0.40814c-0.51253,-0.49742 -0.46423,-1.25733 0.1121,-1.70212l68.88083,-52.83584c0.5763,-0.44078 1.45575,-0.39652 1.96827,0.10251c0.51721,0.49505 0.46423,1.25813 -0.11207,1.69891l-68.87621,52.8395l-0.94292,0.30519"/>
        <path fill="#307d47" fill-rule="nonzero" id="svg_428" d="m2237.05903,1090.44448l-0.1582,-0.00949l-30.57078,-3.28337c-0.7674,-0.08342 -1.31162,-0.68722 -1.21763,-1.34544c0.08937,-0.66227 0.80097,-1.13798 1.54971,-1.05071l30.57075,3.28739c0.76743,0.0794 1.31166,0.68321 1.22232,1.34146c-0.089,0.61807 -0.6933,1.06663 -1.39617,1.06016"/>
        <path fill="#307d47" fill-rule="nonzero" id="svg_427" d="m2243.70661,1077.18343l-0.17213,-0.01364l-21.05357,-2.42016c-0.76268,-0.09141 -1.30225,-0.69518 -1.20356,-1.35737c0.09865,-0.65817 0.7868,-1.114 1.56354,-1.03451l21.05354,2.42418c0.76271,0.08739 1.30225,0.69518 1.2036,1.35335c-0.09359,0.60999 -0.69785,1.05453 -1.39142,1.04815"/>
        <path fill="#307d47" fill-rule="nonzero" id="svg_426" d="m2223.83928,1070.44195l-0.06048,-0.00458c-0.77246,-0.03524 -1.3635,-0.60733 -1.32068,-1.27003l0.9284,-15.1583c0.03817,-0.66275 0.68025,-1.17526 1.46664,-1.13587c0.77243,0.03926 1.3635,0.60733 1.32065,1.27405l-0.92837,15.15428c-0.03803,0.64667 -0.66139,1.1473 -1.40616,1.14045"/>
        <path fill="#307d47" fill-rule="nonzero" id="svg_425" d="m2207.14031,1083.25282c-0.7727,-0.00711 -1.39191,-0.55133 -1.38632,-1.21437l0.14742,-25.23252c0.00097,-0.66711 0.62925,-1.19984 1.40198,-1.19675l0.00465,0.00004c0.76804,0.00707 1.38725,0.55128 1.38629,1.21839l-0.14742,25.23252c-0.00559,0.66305 -0.6339,1.1998 -1.4066,1.19269l0,0"/>
        <path fill="#307d47" fill-rule="nonzero" id="svg_424" d="m2191.92667,1094.91996c-0.66564,-0.00613 -1.25331,-0.42547 -1.36471,-1.01725l-2.67283,-14.27517c-0.12482,-0.65621 0.39246,-1.27436 1.15214,-1.37989c0.75968,-0.10553 1.48207,0.3472 1.60224,1.00336l2.67283,14.27517c0.12482,0.65621 -0.39246,1.27436 -1.15214,1.37989l-0.23753,0.01389"/>
        <path fill="#307d47" fill-rule="nonzero" id="svg_423" d="m2206.20683,1103.43495l-0.46028,-0.06854l-14.90409,-4.63056c-0.72898,-0.22372 -1.10488,-0.91439 -0.84821,-1.54298c0.2613,-0.62452 1.05542,-0.95077 1.78437,-0.72303l14.90413,4.62613c0.72898,0.22372 1.10488,0.91439 0.84821,1.54298c-0.20436,0.49725 -0.74692,0.8013 -1.32412,0.79599"/>
        <path fill="#307d47" fill-rule="nonzero" id="svg_422" d="m2249.21699,1063.53013l-0.00931,-0.00009l-11.67352,-0.19585c-0.77263,-0.01515 -1.38715,-0.56334 -1.37688,-1.23036c0.0149,-0.66296 0.64311,-1.18766 1.4065,-1.18063l0.01396,0.00013l11.67352,0.19585c0.77263,0.01515 1.38715,0.56334 1.37222,1.23032c-0.01021,0.65898 -0.63845,1.1877 -1.4065,1.18063"/>
        <path fill="#307d47" fill-rule="nonzero" id="svg_421" d="m2238.57032,1059.14411l-0.15354,-0.00945c-0.76278,-0.07936 -1.31638,-0.67521 -1.22701,-1.33749l1.11813,-8.39296c0.08468,-0.6583 0.76835,-1.13426 1.54509,-1.05477c0.76278,0.07936 1.31635,0.67923 1.22701,1.33749l-1.11347,8.39301c-0.08435,0.61811 -0.69333,1.07065 -1.39621,1.06418"/>
        <path fill="#38a85b" fill-rule="nonzero" id="svg_420" d="m2147.25449,1041.46104c28.15526,19.79839 22.03184,54.82994 22.03184,54.82994c0,0 -38.46208,12.28064 -66.61269,-7.5173c-28.15523,-19.80241 -22.03649,-54.82998 -22.03649,-54.82998c0,0 38.46677,-12.28502 66.61735,7.51734"/>
        <path fill="#307d47" fill-rule="nonzero" id="svg_419" d="m2161.92268,1092.325l-0.86822,-0.27323l-71.67457,-50.41204c-0.60164,-0.41947 -0.69299,-1.17986 -0.20918,-1.69383c0.4885,-0.51794 1.36897,-0.59424 1.96592,-0.17079l71.67926,50.40806c0.59695,0.42345 0.6883,1.18383 0.20449,1.6978l-1.09771,0.44402"/>
        <path fill="#307d47" fill-rule="nonzero" id="svg_418" d="m2138.40968,1074.61087c-0.74011,-0.00681 -1.35497,-0.51482 -1.38676,-1.16213l-1.24254,-26.56748c-0.03165,-0.66339 0.56894,-1.22451 1.33725,-1.24959c0.80083,-0.01674 1.42031,0.49532 1.45196,1.15871l1.2472,26.56753c0.03162,0.66741 -0.56894,1.22451 -1.34191,1.24954l-0.0652,0.00342"/>
        <path fill="#307d47" fill-rule="nonzero" id="svg_417" d="m2121.58783,1062.7775c-0.74477,-0.00685 -1.35959,-0.51888 -1.38669,-1.17017l-0.66962,-18.31971c-0.02231,-0.66732 0.58287,-1.22036 1.35115,-1.24142c0.80555,-0.02474 1.41555,0.50734 1.44252,1.1747l0.66962,18.31971c0.027,0.66335 -0.58287,1.22036 -1.35111,1.2374l-0.05586,-0.00051"/>
        <path fill="#307d47" fill-rule="nonzero" id="svg_416" d="m2098.97181,1064.02416c-0.69822,-0.00643 -1.29956,-0.46206 -1.37351,-1.07762c-0.08286,-0.66386 0.47146,-1.25756 1.23549,-1.32688l17.4842,-1.58324c0.76869,-0.06928 1.4536,0.41124 1.53646,1.0751c0.08289,0.65984 -0.47142,1.25354 -1.23546,1.32286l-17.4842,1.58324l-0.16299,0.00654"/>
        <path fill="#307d47" fill-rule="nonzero" id="svg_415" d="m2104.96214,1078.49462c-0.67029,-0.00617 -1.25793,-0.42953 -1.36933,-1.02131c-0.11547,-0.66014 0.40177,-1.27427 1.16607,-1.37574l28.87105,-3.82942c0.75965,-0.10152 1.47739,0.35117 1.59751,1.01136c0.12016,0.65617 -0.40174,1.27025 -1.16138,1.37177l-28.87571,3.82938l-0.22822,0.01397"/>
        <path fill="#307d47" fill-rule="nonzero" id="svg_414" d="m2133.78049,1090.31381c-0.58185,-0.00535 -1.12379,-0.32783 -1.31509,-0.82791c-0.24604,-0.63321 0.15075,-1.31677 0.88335,-1.52302l15.88425,-4.51559c0.73729,-0.21023 1.52111,0.13456 1.76715,0.76777c0.24139,0.63317 -0.15072,1.31275 -0.88335,1.52302l-15.88425,4.51559l-0.45206,0.06014"/>
        <path fill="#307d47" fill-rule="nonzero" id="svg_413" d="m2154.21347,1085.72354l-0.24188,-0.02232c-0.76244,-0.11954 -1.26453,-0.75109 -1.12403,-1.40486l2.85503,-13.42857c0.14051,-0.65377 0.87035,-1.0851 1.62345,-0.96162c0.76244,0.11954 1.26453,0.75109 1.12403,1.40486l-2.85503,13.42857c-0.12131,0.58562 -0.71593,0.99007 -1.38157,0.98394"/>
        <path fill="#307d47" fill-rule="nonzero" id="svg_412" d="m2106.0895,1051.87661c-0.6796,-0.00625 -1.27183,-0.43769 -1.36922,-1.03337l-1.68486,-9.98206c-0.11082,-0.6601 0.4157,-1.27013 1.17994,-1.36356c0.76886,-0.08937 1.4726,0.3672 1.58345,1.02328l1.68486,9.98206c0.11082,0.6601 -0.42036,1.27008 -1.17994,1.36356l-0.21422,0.01008"/>
        <path fill="#307d47" fill-rule="nonzero" id="svg_411" d="m2091.35459,1052.03035c-0.73546,-0.00677 -1.35035,-0.51076 -1.38217,-1.15405c-0.03627,-0.66745 0.55966,-1.22861 1.32801,-1.25771l9.77427,-0.36417c0.75435,-0.02521 1.42503,0.48733 1.46134,1.15076c0.03627,0.66745 -0.55966,1.22861 -1.32801,1.25771l-9.77893,0.36412l-0.07451,0.00333"/>
       </g>
       <path fill="#f9af1e" fill-rule="nonzero" id="svg_409" d="m2221.21862,1114.62031l-5.43593,27.47053l-6.5737,33.22297l-1.4834,7.54526c-0.96167,5.8465 -6.80407,10.28572 -13.09272,10.22784l-40.61788,-0.37382c-6.28865,-0.05788 -12.05535,-4.60394 -12.91836,-10.46723l-1.35604,-7.57139l-6.01291,-33.33881l-4.96758,-27.56627l92.45851,0.85092"/>
      </g>
      <path id="svg_406" d="m1812.70324,1056.61524s0.64932,36.20298 -7.56174,64.55285l7.56174,-64.56245l0,0.0096z" fill="#D0F7DA"/>
      <path id="svg_405" d="m1812.70324,1056.61524s0.64932,36.20298 -7.56174,64.55285" stroke-width="3" stroke-linejoin="round" stroke-linecap="round" stroke="#A0A3A8"/>
      <path id="svg_404" d="m1867.0409,1073.24307s-8.30147,34.89733 -23.17015,59.33026l23.17837,-59.33026l-0.00822,0z" fill="#D0F7DA"/>
      <g id="svg_391">
       <path id="svg_403" opacity="0.4" d="m1788.09497,1076.13661l-0.96166,6.99867l7.29872,1.68006l0.92056,-6.91226l-7.25762,-1.76647z" fill="#FF7DCC"/>
       <g id="svg_392">
        <path id="svg_402" opacity="0.4" d="m1780.13554,1128.48933l6.28775,-46.19696l9.36998,2.19848l-7.83297,57.35258l-7.83297,-2.12168l0,-11.23243l0.00822,0l-0.00001,0.00001z" stroke-width="2" stroke-linejoin="round" stroke-linecap="round" stroke="#455A7F" fill="#FFBB4D"/>
        <path id="svg_401" opacity="0.4" d="m1785.15752,1091.56633l9.36176,2.24649" stroke-width="2" stroke-linejoin="round" stroke-linecap="round" stroke="#455A7F"/>
        <path id="svg_400" opacity="0.4" d="m1772.43407,1133.70233l0.07397,-46.79218l9.53436,0.48002l-0.09863,58.07261l-8.02202,-0.68163l-1.47947,-11.07882l-0.00822,0l0.00001,0z" stroke-width="2" stroke-linejoin="round" stroke-linecap="round" stroke="#455A7F" fill="#C7C8C9"/>
        <path id="svg_399" opacity="0.4" d="m1762.30792,1146.1252l-10.55356,-43.00964a1.53701,1.79527 0 0 1 0.55069,-1.99688c0.1726,-0.14401 0.36987,-0.24961 0.57535,-0.30721l6.24665,-1.77607a1.5781,1.84327 0 0 1 1.874,1.28645l12.82208,52.25479a1.56988,1.83367 0 0 1 -1.16714,2.30409l-5.01376,1.24805a1.5781,1.84327 0 0 1 -1.75071,-1.02724l-3.47676,-8.73633l-0.10685,-0.24001l0.00001,0z" fill="#455A7F"/>
        <path id="svg_398" opacity="0.4" d="m1773.48614,1087.97962l-3.98635,0l0,17.08865" stroke-width="2" stroke-linejoin="round" stroke-linecap="round" stroke="#455A7F"/>
        <path id="svg_397" d="m1756.94073,1189.69358l31.98944,0l5.40829,-63.98643l-44.09644,0l6.69871,63.98643z" fill="#CFEBF9"/>
        <path id="svg_396" d="m1790.03977,1193.60093l-34.08535,0a1.17536,1.37285 0 0 1 -1.16714,-1.20965l-7.0357,-66.74174a1.22467,1.43045 0 0 1 0.28767,-1.08484a1.1918,1.39205 0 0 1 0.88768,-0.46082l46.7677,0a1.1918,1.39205 0 0 1 1.11782,0.95044c0.05753,0.18241 0.08219,0.37441 0.05753,0.56642l-5.64665,66.73214a1.17536,1.37285 0 0 1 -1.1918,1.24805l0.00822,0l0.00002,0zm-33.09904,-2.7553l31.98944,0l5.40829,-63.98643l-44.09644,0l6.69871,63.98643z" fill="#A0A3A8"/>
        <path id="svg_395" opacity="0.14" d="m1764.00109,1126.84767l0,37.75824l-11.01383,-0.57602l-5.26034,-37.53743l16.27417,0.35521z" fill="#455A7F"/>
        <path id="svg_394" d="m1758.03389,1134.23035l35.68811,0l-35.68811,0zm-5.91788,10.87721l34.7018,0l-34.7018,0zm9.86314,12.01966l29.27707,0l-29.26886,0l-0.00822,0l0.00001,0z" fill="#FCE3DE"/>
        <path id="svg_393" d="m1764.48731,1156.29391l29.26886,0m-33.22233,-22.89687l35.68811,0l-35.68811,0zm-5.91788,10.87721l34.7018,0l-34.7018,0z" stroke-width="3" stroke-linejoin="round" stroke-linecap="round" stroke="#A0A3A8"/>
       </g>
      </g>
      <g id="svg_385">
       <g id="svg_386">
        <g id="svg_388">
         <path fill="#8f9092" fill-rule="nonzero" id="svg_390" d="m2008.1419,1168.43316l-87.59446,-0.99678l0.41702,-61.20108l87.59446,0.99678l-0.41702,61.20108"/>
         <path fill="#d3d4d4" fill-rule="nonzero" id="svg_389" d="m2029.29129,1192.07545l-128.38151,-1.46091l20.56463,-25.22002l87.59446,0.99678l20.22242,25.68415"/>
        </g>
        <path id="svg_387" d="m1901.89208,1190.4976l124.95454,0l0,3.20652l-124.95454,0l0,-3.21612l0,0.0096z" fill="#8F9092"/>
       </g>
      </g>
      <path id="svg_384" d="m2125.73768,854.7522l-321.76837,0c-6.79734,0 -12.31248,6.43224 -12.31248,14.38135l0,239.3179c0,7.9491 5.50692,14.39095 12.31248,14.39095l321.76837,0c6.80556,0 12.3207,-6.43224 12.3207,-14.39095l0,-239.3179c0,-7.9395 -5.51514,-14.38135 -12.32892,-14.38135l0.00822,0z" fill="#DAE1F2"/>
      <path id="svg_383" d="m2124.71849,1124.80087l-319.68889,0a15.04128,17.56867 0 0 1 -15.02484,-17.54947l0,-236.91781a15.04128,17.56867 0 0 1 15.02484,-17.53027l319.68889,0a15.03306,17.55907 0 0 1 15.01662,17.53027l0,236.91781a15.03306,17.55907 0 0 1 -15.01662,17.54947zm-319.68889,-268.09979c-6.44392,0 -11.67138,6.10583 -11.67138,13.63252l0,236.91781a11.67138,13.63252 0 0 0 11.67138,13.64212l319.68889,0c6.45213,0 11.67138,-6.10583 11.67138,-13.63252l0,-236.92741a11.69604,13.66132 0 0 0 -11.67138,-13.63252l-319.68889,0z" fill="#455A7F"/>
      <path id="svg_382" d="m1809.66528,873.1177l310.39288,0l0,201.56926l-310.38466,0l0,-201.56926l-0.00822,0z" fill="#fff"/>
      <path id="svg_381" d="m2120.06638,1076.64544l-310.4011,0a1.66851,1.94887 0 0 1 -1.66851,-1.95847l0,-201.56926a1.64386,1.92007 0 0 1 0.49316,-1.39205a1.67673,1.95847 0 0 1 1.17536,-0.57602l310.4011,0a1.67673,1.95847 0 0 1 1.66851,1.96807l0,201.56926a1.66851,1.94887 0 0 1 -1.66851,1.94887l0,0.0096l-0.00001,0zm-308.73259,-3.90735l307.06408,0l0,-197.67152l-307.06408,0l0,197.67152z" fill="#455A7F"/>
      <path id="svg_380" opacity="0.19" d="m1859.66821,923.77499l-73.64475,0a9.99464,11.67404 0 0 0 -9.99464,11.67404l0,118.2477c0,6.44184 4.47129,11.67404 9.99464,11.67404l73.64475,0c5.52336,0 10.00286,-5.2322 10.00286,-11.67404l0,-118.2477c0,-6.45145 -4.47951,-11.67404 -10.00286,-11.67404z" fill="#6B6B6B"/>
      <path id="svg_379" opacity="0.04" d="m1807.99676,874.26974l310.4011,0l0,199.62999l-310.4011,0l0,-199.62999z" fill="#4951F5"/>
      <path id="svg_378" d="m2068.61874,1098.60723l-277.79522,0a1.66029,1.93927 0 1 1 0,-3.89775l277.79522,0a1.66851,1.94887 0 1 1 0,3.89775zm38.40048,0l-23.17837,0a1.66851,1.94887 0 1 1 0,-3.89775l23.17837,0a1.66851,1.94887 0 0 1 0,3.89775zm29.29351,0l-16.53719,0a1.66029,1.93927 0 1 1 0,-3.89775l16.54541,0a1.66851,1.94887 0 0 1 0,3.89775l-0.00822,0zm-172.28432,17.99108a5.90144,6.89306 0 1 0 0,-13.78612a5.90144,6.89306 0 0 0 0,13.78612z" fill="#455A7F"/>
      <path id="svg_377" d="m1777.04801,1062.02024c0,-1.98728 -0.98631,-3.98415 -0.98631,-5.96183l13.17551,0l-0.49316,12.22126c-2.19455,0 -3.90416,-0.57602 -6.09049,-0.57602" fill="#E8E9FC"/>
      <path id="svg_376" opacity="0.23" clip-rule="evenodd" d="m1891.09874,1040.45782l213.06017,0l0,20.59278l-213.06017,0l0,-20.59278z" stroke-width="2" stroke-linejoin="round" stroke-linecap="round" stroke="#455A7F"/>
      <path id="svg_375" d="m1775.27264,1153.40612l83.09692,0l-83.09692,0zm4.88225,28.47468l12.34536,0l-12.34536,0zm20.69615,0l43.01971,0l-43.01971,0zm76.75164,-234.85373l29.26064,0l-29.26064,0zm0,17.01185l29.26064,0l-29.26064,0zm0,17.03105l29.26064,0l-29.26064,0zm0,17.02145l29.26064,0l-29.26064,0z" fill="#FCE3DE"/>
      <path id="svg_374" d="m1649.87615,1072.74193z" fill="#455A7F"/>
      <path id="svg_373" d="m2284.00873,832.73581l0,37.47983m-21.08245,-148.07603l0,33.18846l0,-33.18846zm70.57074,34.59972l-98.98479,0l98.99301,0l-0.00822,0zm-42.16491,0l0,38.53587l0,-38.53587zm42.16491,38.53587l-157.64579,0l157.64579,0zm-87.07505,0l0,37.46062l0,-37.46062zm96.67517,37.46062l-126.00156,0l126.00156,0z" stroke-width="3" stroke-linejoin="round" stroke-linecap="round" stroke="#DEDFE0"/>
      <metadata id="svg_372">image/svg+xml</metadata>
      <path fill="#f6f6f5" fill-rule="nonzero" id="svg_371" d="m2390.66652,1608.3156l-107.45198,-0.94618l-0.29238,33.20362l107.45198,0.94618l0.29238,-33.20362"/>
      <path fill="#38a85b" fill-rule="nonzero" id="svg_370" d="m2352.96938,1615.88873c-0.01035,1.17487 -1.17201,2.11732 -2.59695,2.10477l-28.26551,-0.24889c-1.42237,-0.01252 -2.56726,-0.97528 -2.55692,-2.15015c0.01035,-1.17509 1.17201,-2.11753 2.59438,-2.10501l28.26551,0.24889c1.42494,0.01255 2.56982,0.9753 2.55948,2.15039"/>
      <path fill="#f6f6f5" fill-rule="nonzero" id="svg_369" d="m1944.52615,1637.51239l-121.68596,-1.07152l0.28725,-32.62084l121.68596,1.07152l-0.28725,32.62084"/>
      <path fill="#38a85b" fill-rule="nonzero" id="svg_368" d="m1897.47243,1622.84414l-27.33007,-0.24066c-1.37368,-0.0121 -2.48039,-0.94466 -2.4704,-2.07911c0.01001,-1.13698 1.13296,-2.04843 2.50664,-2.03634l27.33007,0.24066c1.37624,0.01212 2.48296,0.94321 2.47295,2.08019c-0.00999,1.13444 -1.13295,2.04738 -2.50919,2.03526"/>
      <path fill="#ffffff" fill-rule="nonzero" id="svg_367" d="m2101.27732,1621.37237l-54.02712,-0.47574l0.13887,-15.77082l39.48047,0.34765c8.03192,0.07073 14.49929,5.50711 14.44087,12.14144l-0.03309,3.75748"/>
      <path fill="#ffffff" fill-rule="nonzero" id="svg_366" d="m2030.08177,1620.74545l-54.02712,-0.47574l0.03309,-3.75748c0.05842,-6.63433 6.61795,-11.956 14.65244,-11.88525l39.48047,0.34765l-0.13887,15.77082"/>
      <path fill="#f14539" fill-rule="nonzero" id="svg_365" d="m1985.57281,1625.03411l-4.34913,-0.0383l0.04121,-4.68023l4.34913,0.0383l-0.04121,4.68023"/>
      <path fill="#f14539" fill-rule="nonzero" id="svg_364" d="m2040.17913,1625.51495l-4.34913,-0.0383l0.04121,-4.68023l4.34913,0.0383l-0.04121,4.68023"/>
      <path fill="#1d1a2c" fill-rule="nonzero" id="svg_363" d="m1986.33337,1634.13186c0.0418,-4.74649 -4.58101,-8.63346 -10.32432,-8.68403c-5.74588,-0.0506 -10.43641,3.75436 -10.47821,8.50085c-0.04177,4.74395 4.58101,8.63325 10.32689,8.68384c5.74331,0.05057 10.43387,-3.75671 10.47564,-8.50066"/>
      <path fill="#f14539" fill-rule="nonzero" id="svg_362" d="m1990.16429,1634.80642l-2.73198,-0.02406l0.00993,-1.12788c0.04614,-5.2393 -5.07787,-9.54838 -11.42089,-9.60423c-6.34558,-0.05588 -11.54467,4.1623 -11.59081,9.4016l-0.00993,1.12788l-2.73198,-0.02406l0.00993,-1.12788c0.05712,-6.48636 6.4927,-11.70327 14.34266,-11.63415c7.84996,0.06912 14.19011,5.39853 14.133,11.88489l-0.00993,1.12788"/>
      <path fill="#f14539" fill-rule="nonzero" id="svg_361" d="m2091.67417,1625.9684l4.34913,0.0383l0.04121,-4.68023l-4.34913,-0.0383l-0.04121,4.68023"/>
      <path fill="#1d1a2c" fill-rule="nonzero" id="svg_360" d="m2090.75352,1635.05134c0.0418,-4.74649 4.73233,-8.55145 10.47821,-8.50085c5.74331,0.05057 10.36612,3.93754 10.32432,8.68403c-0.04177,4.74395 -4.73233,8.55124 -10.47564,8.50066c-5.74588,-0.0506 -10.36866,-3.93989 -10.32689,-8.68384"/>
      <path fill="#f14539" fill-rule="nonzero" id="svg_359" d="m2115.38697,1635.90909l-2.73198,-0.02406l0.00993,-1.12788c0.04614,-5.2393 -5.07787,-9.54838 -11.42089,-9.60423c-6.34558,-0.05588 -11.54467,4.1623 -11.59081,9.4016l-0.00993,1.12788l-2.73198,-0.02406l0.00993,-1.12788c0.05712,-6.48636 6.4927,-11.70327 14.34266,-11.63415c7.84996,0.06912 14.19011,5.39853 14.133,11.88489l-0.00993,1.12788"/>
      <path fill="#1d1a2c" fill-rule="nonzero" id="svg_358" d="m2045.62322,1643.24685l-15.54872,-0.13692l0.15132,-17.18469l15.54872,0.13692l-0.15132,17.18469"/>
      <path fill="#f14539" fill-rule="nonzero" id="svg_357" d="m2047.06539,1623.54703l-18.08593,-0.15926l-0.09362,10.63165l18.08593,0.15926l0.09362,-10.63165"/>
      <path fill="#f6f6f5" fill-rule="nonzero" id="svg_356" d="m2047.59106,1620.89963l-18.11924,-0.15955l0.073,-8.28974c0.03639,-4.13217 4.12284,-7.44536 9.1255,-7.40131c5.00265,0.04405 9.03013,3.42869 8.99375,7.56086l-0.073,8.28974"/>
      <g id="svg_350">
       <path fill="#ffffff" fill-rule="nonzero" id="svg_355" d="m2216.60107,1110.49514l-0.39845,-0.06176l-1.07371,-0.21849c-0.45014,-0.10833 -1.01531,-0.29841 -1.63787,-0.54664c-0.61083,-0.27111 -1.29077,-0.57747 -1.99257,-1.05665c-0.70189,-0.46767 -1.44922,-1.04513 -2.14838,-1.88671c-0.6878,-0.81269 -1.38519,-1.89587 -1.72203,-3.26862c-0.36591,-1.35004 -0.33144,-2.90294 0.00761,-4.20524c0.29871,-1.31998 0.84435,-2.41298 1.34856,-3.37411c0.54451,-0.93769 1.08247,-1.77189 1.61391,-2.50262c0.51421,-0.74817 1.03358,-1.40998 1.51231,-2.04922c0.45565,-0.64524 0.92248,-1.23858 1.31413,-1.82697c0.42055,-0.58808 0.78898,-1.16521 1.13416,-1.72532c0.33362,-0.56024 0.64986,-1.11491 0.91374,-1.62411l0.70395,-1.39622c0.35282,-0.81316 0.62256,-1.33381 0.62256,-1.33381l0.24044,0.32471l0.57683,0.96684c0.18765,0.4277 0.4843,0.97161 0.64723,1.61766c0.20336,0.65223 0.34811,1.41314 0.42286,2.2596c0.05167,0.84046 0.03908,1.77229 -0.10668,2.73146c-0.13428,0.9708 -0.39578,1.94601 -0.73239,2.91467c-0.34231,0.95709 -0.75381,1.89044 -1.2111,2.76002c-0.44003,0.88127 -0.91981,1.66432 -1.30095,2.39664c-0.42143,0.70888 -0.73252,1.3499 -0.95576,1.83652l-0.41386,1.25548c-0.07814,0.40762 -0.04162,0.94878 0.09274,1.5485l0.25341,0.92314l0.34008,0.92981c0.22087,0.6294 0.523,1.21364 0.74446,1.76251c0.25053,0.52617 0.42595,1.04578 0.63681,1.46222l0.43776,1.01139l0.13022,0.37532"/>
       <path fill="#ffffff" fill-rule="nonzero" id="svg_354" d="m2240.14032,1110.74486l-0.5658,-0.1038c-0.36364,-0.07864 -0.91222,-0.165 -1.56989,-0.35607c-0.64555,-0.26573 -1.55723,-0.50551 -2.42626,-1.04399c-0.90401,-0.49858 -1.91063,-1.19385 -2.83364,-2.25641c-0.95799,-1.02266 -1.71594,-2.52068 -2.1143,-4.17597c-0.42132,-1.67854 -0.33896,-3.45529 -0.03777,-5.11467c0.29549,-1.67094 0.82732,-3.24733 1.46237,-4.70756c0.61209,-1.48349 1.35064,-2.86784 2.06565,-4.19491c0.74965,-1.32095 1.47584,-2.59613 2.20153,-3.80228c0.72581,-1.22341 1.38745,-2.36695 2.00845,-3.48792c0.58045,-1.10989 1.14327,-2.1797 1.54384,-3.19945l0.56019,-1.5013l0.36896,-1.44005c0.19184,-0.93568 0.27941,-1.84369 0.26817,-2.67797l-0.04906,-1.19711l-0.13687,-1.04847c-0.09934,-0.64537 -0.24594,-1.15318 -0.31845,-1.51637l-0.11723,-0.57077l0.46576,0.34436c0.26993,0.24448 0.78805,0.54337 1.25234,1.08906l0.79697,0.9059l0.79474,1.21077c0.52523,0.90877 0.96784,2.04677 1.24164,3.34406c0.16285,0.65755 0.18105,1.33082 0.26825,2.05661c-0.00509,0.69604 0.02405,1.45572 -0.05644,2.18548c-0.12655,1.49439 -0.47854,2.9864 -0.93459,4.47729c-0.47888,1.45039 -1.04468,2.92861 -1.71952,4.29638c-0.64614,1.39684 -1.3901,2.72935 -2.08751,4.0221c-0.69125,1.24103 -1.37673,2.48212 -2.06207,3.70596c-0.29907,0.57786 -0.60395,1.16142 -0.90289,1.72202c-0.24109,0.55547 -0.51108,1.11063 -0.71141,1.62626c-0.4007,1.03701 -0.70836,2.00022 -0.76678,2.87403c-0.05842,0.87381 -0.04177,1.75992 0.27586,2.59745c0.24813,0.85405 0.68732,1.66986 1.14457,2.38806l0.67486,1.0024l0.6238,0.86954c0.91174,1.02217 1.39257,1.67734 1.39257,1.67734"/>
       <g id="svg_351">
        <path fill="#872d2d" fill-rule="nonzero" id="svg_353" d="m2206.28451,1192.82468l-8.18146,-81.32309l67.09148,0.71173l-9.36892,81.13691l-49.5411,-0.52555"/>
        <path fill="#872d2d" fill-rule="nonzero" id="svg_352" d="m2257.32641,1167.09781c7.30681,0.87716 14.02648,-4.91945 15.00427,-12.93427c0.98362,-8.02052 -4.14364,-15.23143 -11.45045,-16.10859l1.10064,-9.00301c11.84114,1.41425 20.15003,13.1001 18.56353,26.09042c-1.59232,12.99601 -12.47758,22.38421 -24.31868,20.96421l1.10068,-9.00876"/>
       </g>
      </g>
      <g id="svg_315">
       <path fill="#a9b4bf" fill-rule="nonzero" id="svg_349" d="m2329.35422,759.22184l-233.05483,-2.31185c-1.06763,-0.01059 -1.92852,-0.82613 -1.92076,-1.81957l0.06602,-8.44615c0.00777,-0.99344 0.88127,-1.79177 1.9489,-1.78118l233.05483,2.31185c1.06763,0.01059 1.92852,0.82613 1.92076,1.81957l-0.06602,8.44615c-0.00777,0.99344 -0.88127,1.79177 -1.9489,1.78118"/>
       <path fill="#4d3647" fill-rule="nonzero" id="svg_348" d="m2180.62842,663.75822l7.31796,0.0764c0.83856,0.00832 1.51265,0.6469 1.50655,1.42719l-0.59823,75.48618c-0.0061,0.78029 -0.69419,1.40916 -1.53684,1.4008l-7.31387,-0.07636c-0.84265,-0.00836 -1.51674,-0.64694 -1.51065,-1.42723l0.60232,-75.48614c0.0061,-0.78029 0.69416,-1.40536 1.53275,-1.40084"/>
       <path fill="#401a29" fill-rule="nonzero" id="svg_347" d="m2179.05983,676.548l10.35724,0.10655l0.03477,-3.92424l-10.35724,-0.10655l-0.03477,3.92424"/>
       <path fill="#401a29" fill-rule="nonzero" id="svg_346" d="m2178.61135,732.87715l10.3573,0.09894l0.03061,-3.91667l-10.35724,-0.10655l-0.03067,3.92428"/>
       <path fill="#38a85b" fill-rule="nonzero" id="svg_345" d="m2161.07558,663.56807l16.37867,0.14725c0.84265,0.00836 1.51674,0.64694 1.51474,1.42727l-0.52051,75.48696c-0.00613,0.78409 -0.6901,1.4092 -1.52869,1.40469l-16.38273,-0.15109c-0.83856,-0.00832 -1.51674,-0.64694 -1.51062,-1.43103l0.51641,-75.487c0.0061,-0.78029 0.69416,-1.40536 1.53272,-1.39704"/>
       <path fill="#87d273" fill-rule="nonzero" id="svg_344" d="m2174.75282,719.9003l-0.0695,9.93829l-11.65406,-0.10419l0.06953,-9.9421l11.65403,0.10799"/>
       <path fill="#387f35" fill-rule="nonzero" id="svg_343" d="m2159.54995,670.86157l19.42613,0.17748l0.02249,-3.92436l-19.41795,-0.1774l-0.03067,3.92428"/>
       <path fill="#387f35" fill-rule="nonzero" id="svg_342" d="m2159.08517,738.17254l19.4261,0.18128l0.02658,-3.92432l-19.42204,-0.17744l-0.03064,3.92047"/>
       <path fill="#387f35" fill-rule="nonzero" id="svg_341" d="m2170.03905,714.28451l4.21738,0.03803l0.26158,-37.65211l-4.22147,-0.03807l-0.25749,37.65215"/>
       <path fill="#387f35" fill-rule="nonzero" id="svg_340" d="m2164.86038,714.23695l4.21329,0.03799l0.14843,-21.08318l-4.21735,-0.04184l-0.14437,21.08703"/>
       <path fill="#f14e25" fill-rule="nonzero" id="svg_339" d="m2150.81236,663.47007l7.31802,0.06879c0.83856,0.00832 1.51674,0.64694 1.51471,1.43107l-0.56547,75.4827c-0.0061,0.78029 -0.6901,1.4092 -1.53275,1.40084l-7.31799,-0.07259c-0.83856,-0.00832 -1.51265,-0.6469 -1.50653,-1.43099l0.56138,-75.48274c0.0061,-0.78029 0.6901,-1.4092 1.52863,-1.39708"/>
       <path fill="#753339" fill-rule="nonzero" id="svg_338" d="m2149.23568,676.24834l10.35727,0.10274l0.02658,-3.92432l-10.3573,-0.09894l-0.02655,3.92052"/>
       <path fill="#753339" fill-rule="nonzero" id="svg_337" d="m2148.81174,732.57773l10.36139,0.09898l0.03067,-3.92428l-10.35732,-0.09513l-0.03474,3.92043"/>
       <path fill="#753339" fill-rule="nonzero" id="svg_336" d="m2151.94735,724.47037l4.21326,0.04179l0.32739,-43.97799l-4.21326,-0.04179l-0.32739,43.97799"/>
       <path fill="#5575c3" fill-rule="nonzero" id="svg_335" d="m2130.59182,692.70197l17.24166,0.17103c0.60131,0.00596 1.08452,0.46755 1.08014,1.02707l-0.36619,46.84777c-0.00437,0.55952 -0.49472,1.01145 -1.09603,1.00548l-17.24166,-0.17103c-0.60131,-0.00596 -1.08861,-0.46759 -1.08423,-1.02711l0.36619,-46.84777c0.00437,-0.55952 0.49881,-1.01141 1.10012,-1.00544"/>
       <path fill="#3d5bb2" fill-rule="nonzero" id="svg_334" d="m2129.47197,696.23098l-0.03067,3.92428l19.42192,0.19266l0.03067,-3.92428l-19.42192,-0.19266"/>
       <path fill="#3d5bb2" fill-rule="nonzero" id="svg_333" d="m2129.17591,734.10733l-0.03067,3.92428l19.42192,0.19266l0.03067,-3.92428l-19.42192,-0.19266"/>
       <path fill="#3d5bb2" fill-rule="nonzero" id="svg_332" d="m2137.00177,705.84116l-0.16203,20.72903l4.21735,0.04184l0.16203,-20.72903l-4.21735,-0.04184"/>
       <path fill="#ffffff" fill-rule="nonzero" id="svg_331" d="m2333.43272,743.53351l-233.05483,-2.31185c-1.07172,-0.01063 -1.94523,0.7877 -1.95299,1.78114l-0.06602,8.44615c-0.0078,0.99725 0.85309,1.81278 1.92482,1.82341l233.05483,2.31185c1.06763,0.01059 1.94114,-0.78774 1.94893,-1.78499l0.06602,-8.44615c0.00777,-0.99344 -0.85312,-1.80898 -1.92076,-1.81957"/>
       <path fill="#b4b5bd" fill-rule="nonzero" id="svg_330" d="m2231.14433,705.84923c17.90155,-4.17715 50.56055,1.89476 70.80332,8.54772c15.9135,5.22822 21.41867,23.69146 22.45049,27.75951c0.1032,0.40452 -0.23117,0.78948 -0.68113,0.78501l-117.23099,-1.16291l-0.67899,-0.53585c-0.40804,-2.22709 -1.89112,-10.84468 -1.11466,-13.88224c2.73884,-10.73023 11.0217,-17.91102 26.45195,-21.51125"/>
       <path fill="#848698" fill-rule="nonzero" id="svg_329" d="m2321.71702,742.94147l-18.66517,-0.18515l18.71578,-6.28934l-0.05061,6.47449z"/>
       <path fill="#9698a0" fill-rule="nonzero" id="svg_328" d="m2317.01083,710.71014l1.31478,1.36438l7.13788,7.4137l0.91703,0.96074c3.50396,-2.89631 3.43415,-9.6651 3.18492,-12.84607c-0.05893,-0.83423 -1.0038,-1.37271 -1.84498,-1.04608l-10.70962,4.15333"/>
       <path fill="#9698a0" fill-rule="nonzero" id="svg_327" d="m2278.1816,719.97084l0.98135,-0.98759l7.21561,-7.24087l1.3276,-1.32294l-10.64713,-4.36518c-0.83594,-0.34327 -1.77681,0.17651 -1.85696,1.00936c-0.29891,3.17553 -0.47453,9.94189 2.97953,12.90722"/>
       <path fill="#8a8d99" fill-rule="nonzero" id="svg_326" d="m2318.32561,712.07452l7.13788,7.4137c1.91872,-2.63035 1.83697,-6.82601 1.64926,-8.97859c-0.06433,-0.66679 -0.92007,-1.094 -1.67891,-0.83507l-7.10823,2.39996"/>
       <path fill="#8a8d99" fill-rule="nonzero" id="svg_325" d="m2279.16294,718.98325l7.21561,-7.24087l-7.01655,-2.52485c-0.76285,-0.27403 -1.61696,0.13622 -1.68761,0.80167c-0.23755,2.12933 -0.37239,6.2962 1.48855,8.96404"/>
       <path fill="#989ba3" fill-rule="nonzero" id="svg_324" d="m2276.66537,723.96794c-0.07997,10.2313 9.8075,18.62392 25.44157,18.77901c15.63407,0.15509 25.6512,-8.04009 25.73118,-18.27138c0.07997,-10.2313 -11.31279,-18.64266 -25.44154,-18.78281c-14.12875,-0.14015 -25.65123,8.04389 -25.73121,18.27519"/>
       <path fill="#848698" fill-rule="nonzero" id="svg_323" d="m2259.45284,740.48144l0.23629,-1.44416c0.39555,-2.45513 3.70336,-3.80791 5.423,-3.99641c5.2818,-0.58711 21.23132,1.60382 21.23132,1.60382c1.32059,0.09684 2.58002,-0.35506 3.60879,-1.12902c1.14396,-0.85655 2.62042,-1.33676 4.23144,-1.23704c3.28743,0.20771 5.75336,2.93485 5.72938,6.00271l-0.00518,0.66229c-0.00768,0.98202 -0.87294,1.77282 -1.93239,1.76231l-36.81901,-0.36524c-1.05536,-0.01047 -1.85848,-0.89014 -1.70363,-1.85928"/>
       <path fill="#4d4b6e" fill-rule="nonzero" id="svg_322" d="m2313.13644,721.74505l0.02947,-0.10629l0.06377,-0.3077c0.03902,-0.2813 0.02996,-0.6925 -0.15043,-1.16631c-0.17223,-0.46992 -0.53634,-0.99122 -1.09777,-1.38887l-0.9535,-0.48147c-0.35504,-0.11011 -0.73096,-0.16713 -1.11129,-0.18232l-0.54849,0.04024l-0.56548,0.12001l-0.96497,0.46244c-0.56344,0.38268 -0.93564,0.89669 -1.11931,1.36688c-0.18776,0.47015 -0.20328,0.88492 -0.16861,1.15933l0.06298,0.31657l0.02783,0.10305l0.15848,-0.3867l0.21183,-0.40901l0.33905,-0.46104l0.47807,-0.45205l0.60429,-0.37466l0.70963,-0.2442l0.36047,-0.06114l0.40514,-0.01882l0.76425,0.09513l0.70161,0.25819l0.60243,0.38663l0.47093,0.46146l0.3318,0.46769l0.20543,0.40934l0.15238,0.39359"/>
       <path fill="#4d4b6e" fill-rule="nonzero" id="svg_321" d="m2297.90324,721.59394l0.02947,-0.10629l0.06377,-0.3077c0.03902,-0.2813 0.02996,-0.6925 -0.15043,-1.16631c-0.17223,-0.46992 -0.53634,-0.99122 -1.09777,-1.38887l-0.9535,-0.48147c-0.36732,-0.11023 -0.70232,-0.16684 -1.14401,-0.18264l-1.08124,0.16057l-0.96497,0.46244c-0.56344,0.38268 -0.93564,0.89669 -1.11931,1.36688c-0.18776,0.47015 -0.20328,0.88492 -0.16861,1.15933l0.05889,0.31653l0.02783,0.10305l0.16257,-0.38666l0.21183,-0.40901l0.33905,-0.46104l0.47807,-0.45205l0.60838,-0.37462l0.70554,-0.24424l0.79834,-0.07963l0.73152,0.09481l0.70161,0.25819l0.60243,0.38663l0.47093,0.46146l0.3318,0.46769l0.20543,0.40934l0.15238,0.39359"/>
       <path fill="#706e8c" fill-rule="nonzero" id="svg_320" d="m2300.77339,724.42025l2.95338,0.0293c1.46851,0.01457 2.6502,1.134 2.63955,2.49665c-0.01068,1.36646 -2.68638,2.44763 -4.15488,2.43306c-1.46851,-0.01457 -4.12689,-1.14865 -4.1162,-2.51511c0.01065,-1.36265 1.20966,-2.45847 2.67816,-2.4439"/>
       <path fill="#706e8c" fill-rule="nonzero" id="svg_319" d="m2302.54972,728.49188l-0.18347,0.44355l-0.16352,0.50846l-0.0955,0.70327l0.03412,0.86824l0.24618,0.95409l0.21296,0.49316l0.30307,0.47883l0.79099,0.86052l0.99727,0.63798l1.05642,0.39875l1.01733,0.16616l0.90813,0.0052c0.55679,-0.05538 0.99937,-0.15377 1.30703,-0.26111l0.47184,-0.17804l-0.46068,-0.20251c-0.27729,-0.11314 -0.66877,-0.27309 -1.14181,-0.46431l-0.70125,-0.30387l-0.72953,-0.34983l-0.70039,-0.41425l-0.64274,-0.46317l-0.28838,-0.26551l-0.27195,-0.27296l-0.25547,-0.28803l-0.22257,-0.31054l-0.4123,-0.63598l-0.33879,-0.62003l-0.29827,-0.57014l-0.21299,-0.48936l-0.22574,-0.42858"/>
       <path fill="#706e8c" fill-rule="nonzero" id="svg_318" d="m2301.88705,728.48531l-0.2324,0.42403l-0.22061,0.48505l-0.30713,0.56413l-0.34843,0.61321l-0.42217,0.6277l-0.22739,0.30608l-0.26403,0.28287l-0.27618,0.26753l-0.28839,0.25979l-0.64988,0.45034l-0.70267,0.40033l-0.73898,0.33526l-0.70589,0.28991c-0.47596,0.1818 -0.87396,0.33392 -1.15298,0.44155l-0.45969,0.19338l0.46898,0.18737c0.30184,0.11339 0.7469,0.22058 1.30274,0.287l0.90398,0.01277l1.01977,-0.14595l1.06658,-0.37769l1.00709,-0.6181l0.80023,-0.84474l0.31051,-0.47274l0.22064,-0.48886l0.26105,-0.94906l0.05178,-0.86739l-0.08449,-0.70506l-0.15554,-0.51162l-0.1765,-0.44712"/>
       <path fill="#848698" fill-rule="nonzero" id="svg_317" d="m2324.47698,735.78964l0,0c2.89202,0.02869 5.21885,2.23294 5.19779,4.92779l-0.00512,0.65468c-0.00711,0.9097 -0.80236,1.64029 -1.78,1.63059l-6.93757,-0.06882c-0.97764,-0.0097 -1.76134,-0.75595 -1.75423,-1.66565l0.00512,-0.65468c0.02106,-2.69485 2.382,-4.8526 5.27401,-4.82391"/>
       <path fill="#848698" fill-rule="nonzero" id="svg_316" d="m2252.20482,726.74772l0.0066,-0.845c0.02389,-3.05645 -2.61966,-5.56456 -5.90437,-5.59715l-2.04936,-0.02033c-2.38888,-0.0237 -4.3419,1.76125 -4.35928,3.98412c-0.01401,1.79276 -1.58794,3.22746 -3.5105,3.20838l-0.22498,-0.00223c-2.31116,-0.02293 -4.16694,-1.78094 -4.15016,-3.92769c0.04629,-5.92258 5.24202,-10.67495 11.60691,-10.61181l2.13118,0.02114c7.98066,0.07917 14.40484,6.1649 14.34676,13.59477l-0.00065,0.08374c-0.06775,8.66691 -7.67382,15.61841 -16.98799,15.52602l-38.58613,-0.38277c-4.16009,-0.04127 -5.03186,-1.55732 -5.01562,-3.63555c0.01913,-2.44744 2.02365,-3.4934 3.29774,-3.72819c9.94672,-1.80462 40.56596,0.40241 40.56596,0.40241c4.84321,0.04804 8.79867,-3.56323 8.83389,-8.06987"/>
      </g>
      <g id="svg_288">
       <path id="svg_314" d="m2071.49495,1188.66931a21.80575,25.46977 0 1 1 43.59506,0" fill="#fff"/>
       <path id="svg_313" d="m2093.3007,1167.23169l0,11.47244l0,-11.47244zm-21.24684,12.31727l39.61693,0l-39.61693,0z" fill="#FCE3DE"/>
       <path id="svg_312" d="m2072.05386,1179.54896l39.61693,0m-18.37009,-12.31727l0,11.47244l0,-11.47244z" stroke-width="3" stroke-linejoin="round" stroke-linecap="round" stroke="#A0A3A8"/>
       <path id="svg_311" d="m2116.26537,1193.00273l-45.94577,0a1.66029,1.93927 0 0 1 -1.66851,-1.94887a24.6825,28.8299 0 1 1 49.27458,0a1.66851,1.94887 0 0 1 -1.66029,1.94887l-0.00001,0zm-44.21151,-3.89775l42.45258,0a21.29615,24.87455 0 0 0 -42.44436,0l-0.00822,0z" fill="#455A7F"/>
       <g id="svg_289">
        <path id="svg_310" d="m1749.98773,1189.17081l-127.22623,0c-6.54255,0 -11.84398,-6.19224 -11.84398,-13.83413l0,-5.1458c0,-7.63229 5.30144,-13.82453 11.83576,-13.82453l127.24267,0" fill="#fff"/>
        <path fill="#ffffff" fill-opacity="0" id="svg_309" d="m1748.32111,1190.83743l-127.22623,0c-6.54255,0 -11.84398,-6.19224 -11.84398,-13.83413l0,-5.1458c0,-7.63229 5.30144,-13.82453 11.83576,-13.82453l127.24267,0" stroke-width="4" stroke-linejoin="round" stroke-linecap="round" stroke="#455A7F"/>
        <path id="svg_308" d="m1750.51377,1188.76759l-127.25911,0c-6.50967,0 -11.83576,-5.1362 -11.83576,-11.39563l139.08665,0l0,11.39563l0.00822,0z" fill="#E8E8E8"/>
        <path id="svg_307" d="m1742.51641,1158.68965l0,28.32108" stroke-width="4" stroke-linejoin="round" stroke-linecap="round" stroke="#455A7F"/>
        <path id="svg_306" d="m1606.45445,1123.73472l127.25089,0a11.83576,13.82453 0 0 0 11.83576,-13.82453l0,-5.11699c0,-7.63229 -5.30144,-13.82453 -11.83576,-13.82453l-127.25089,0" fill="#fff"/>
        <path id="svg_305" d="m1606.45445,1123.73472l127.25089,0a11.83576,13.82453 0 0 0 11.83576,-13.82453l0,-5.11699c0,-7.63229 -5.30144,-13.82453 -11.83576,-13.82453l-127.25089,0" stroke-width="4" stroke-linejoin="round" stroke-linecap="round" stroke="#455A7F"/>
        <path id="svg_304" d="m1606.45445,1123.73472l127.25089,0a11.83576,13.82453 0 0 0 11.83576,-13.82453l0,-5.11699c0,-7.63229 -5.30144,-13.82453 -11.83576,-13.82453l-127.25089,0" fill="#fff"/>
        <path id="svg_303" d="m1606.45445,1123.73472l127.25089,0a11.83576,13.82453 0 0 0 11.83576,-13.82453l0,-5.11699c0,-7.63229 -5.30144,-13.82453 -11.83576,-13.82453l-127.25089,0" stroke-width="4" stroke-linejoin="round" stroke-linecap="round" stroke="#455A7F"/>
        <path id="svg_302" d="m1606.45445,1123.73472l127.25089,0a11.83576,13.82453 0 0 0 11.83576,-13.82453l0,-5.11699c0,-7.63229 -5.30144,-13.82453 -11.83576,-13.82453l-127.25089,0" fill="#fff"/>
        <g id="svg_298">
         <path id="svg_301" d="m1622.46928,1127.63823a3.3699,3.93615 0 0 0 -3.3699,3.93615l0,18.81672a3.3699,3.93615 0 0 0 3.3699,3.92655l130.97422,0a3.3699,3.93615 0 0 0 3.3699,-3.93615l0,-18.81672a3.3699,3.93615 0 0 0 -3.3699,-3.92655l-130.97422,0z" stroke-width="4" stroke-linejoin="round" stroke-linecap="round" stroke="#455A7F" fill="#96D1CD"/>
         <path id="svg_300" d="m1621.09951,1144.8177l133.53104,0l0,8.2256l-133.53104,0l0,-8.2256z" fill="#4BBCB1"/>
         <path id="svg_299" d="m1627.79047,1149.21118l0,-14.78456m120.83985,14.78456l0,-14.78456l0,14.78456z" stroke-width="3" stroke-linejoin="round" stroke-linecap="round" stroke="#455A7F"/>
        </g>
        <path id="svg_297" d="m1696.75146,1178.31279l34.55385,0m-1.47947,-77.10053l-106.99859,0l106.99859,0zm-105.53555,65.99291l107.0068,0l-107.0068,0zm44.63069,11.10762l16.27417,0l-16.27417,0zm-44.63069,0l34.56207,0l-34.55385,0l-0.00822,0z" stroke-width="4" stroke-linejoin="round" stroke-linecap="round" stroke="#455A7F"/>
        <path id="svg_296" d="m1602.02426,1074.69605l0,-14.78456l0,14.78456zm143.60726,77.01413l0,-14.78456l0,14.78456zm-120.83985,0l0,-14.78456l0,14.78456zm529.37916,12.86449l0,22.42645l0,-22.43605l0,0.0096z" fill="#fff"/>
        <path id="svg_295" d="m1604.67909,1093.27276l6.99461,0l0,28.31148l-6.99461,0l0,-28.32108l0,0.0096zm140.08941,65.13848l6.98639,0l0,28.32108l-6.98639,0l0,-28.32108z" fill="#E8E9FC"/>
        <path id="svg_294" d="m1616.35046,1123.95553l118.0042,0c6.50967,0 11.83576,-5.12659 11.83576,-11.40523l-129.83996,0l0,11.40523z" fill="#E8E8E8"/>
        <path id="svg_293" d="m1729.82584,1112.31029l-34.55385,0m-10.06862,0l-62.37611,0l62.37611,0z" stroke-width="4" stroke-linejoin="round" stroke-linecap="round" stroke="#455A7F"/>
        <path id="svg_292" d="m1745.63974,1151.71018l0,-14.78456l0,14.78456zm-120.84807,0l0,-14.78456l0,14.78456z" fill="#fff"/>
        <path fill="#ffffff" fill-opacity="0" id="svg_291" d="m1606.45445,1122.90141l127.25089,0a11.83576,13.82453 0 0 0 11.83576,-13.82453l0,-5.11699c0,-7.63229 -5.30144,-13.82453 -11.83576,-13.82453l-127.25089,0" stroke-width="4" stroke-linejoin="round" stroke-linecap="round" stroke="#455A7F"/>
        <path id="svg_290" d="m1616.29586,1092.70344l0,28.32108" stroke-width="4" stroke-linejoin="round" stroke-linecap="round" stroke="#455A7F"/>
       </g>
      </g>
      <g id="svg_257">
       <g id="svg_258">
        <g id="svg_259">
         <path id="svg_287" opacity="0.15" d="m2020.77283,947.67103l0,-0.76803a6.822,7.9683 0 0 1 -6.80556,7.9395l-117.44529,0a6.822,7.9683 0 0 1 -6.87132,-7.9395l131.12217,0.76803z" stroke-width="3" stroke-linejoin="round" stroke-linecap="round" stroke="#A0A3A8" fill="#FCE3DE"/>
         <path id="svg_286" opacity="0.15" d="m1877.63407,939.38592l155.18,0l0,7.51709l-155.18,0l0,-7.51709z" stroke-width="3" stroke-linejoin="round" stroke-linecap="round" stroke="#A0A3A8" fill="#8D7047"/>
         <path stroke="#455A7F" id="svg_285" d="m2144.07847,841.47097l-211.17796,0c-6.80556,0 -12.3207,6.43224 -12.3207,14.38135l0,153.73065c0,7.9395 5.51514,14.38135 12.32892,14.38135l211.16974,0c6.80556,0 12.3207,-6.43224 12.3207,-14.38135l0,-153.73065c0,-7.9395 -5.51514,-14.38135 -12.3207,-14.38135z" fill="#e2e0e0"/>
         <rect id="svg_284" height="149.99637" width="233.32769" y="865.84255" x="1922.48474" stroke-opacity="null" stroke-width="null" stroke="#455A7F" fill="#455a7f"/>
         <path stroke="#455A7F" id="svg_283" d="m2147.30864,1025.28916l-217.64653,0a10.22478,11.94285 0 0 1 -10.20835,-11.94285l0,-161.26693c0,-6.59545 4.56992,-11.93325 10.20835,-11.93325l217.64653,0c5.63843,0 10.21656,5.3378 10.22478,11.92365l0,161.28613c0,6.58585 -4.57814,11.93325 -10.22478,11.93325zm-217.64653,-182.50294a7.95626,9.29315 0 0 0 -7.93982,9.28355l0,161.28613a7.94804,9.28355 0 0 0 7.93982,9.28355l217.64653,0a7.95626,9.29315 0 0 0 7.94804,-9.29315l0,-161.26693a7.95626,9.29315 0 0 0 -7.94804,-9.28355l-217.64653,0l0,-0.0096z" fill="#455a7f"/>
         <path id="svg_282" d="m1943.34722,891.09608l34.14289,0" stroke-width="4" stroke-linejoin="round" stroke-linecap="round" stroke="#fff"/>
         <path id="svg_281" d="m1989.61354,891.09608l34.15933,0" stroke-width="4" stroke-linejoin="round" stroke-linecap="round" stroke="#74BF44"/>
         <path id="svg_280" d="m2035.91275,891.09608l17.07144,0" stroke-width="4" stroke-linejoin="round" stroke-linecap="round" stroke="#fff"/>
         <path id="svg_279" d="m1943.34722,908.46314l24.97017,0" stroke-width="4" stroke-linejoin="round" stroke-linecap="round" stroke="#67C7CC"/>
         <path id="svg_278" d="m1978.96136,908.46314l20.93451,0" stroke-width="4" stroke-linejoin="round" stroke-linecap="round" stroke="#EC2831"/>
         <path id="svg_277" d="m2010.57271,908.46314l17.07144,0" stroke-width="4" stroke-linejoin="round" stroke-linecap="round" stroke="#fff"/>
         <path id="svg_276" d="m1943.34722,925.8398l34.14289,0" stroke-width="4" stroke-linejoin="round" stroke-linecap="round" stroke="#74BF44"/>
         <path id="svg_275" d="m1989.61354,925.8398l58.38976,0" stroke-width="4" stroke-linejoin="round" stroke-linecap="round" stroke="#67C7CC"/>
         <path id="svg_274" d="m1981.35317,943.21646l42.96218,0m-80.96813,0l26.74554,0l-26.74554,0z" stroke-width="4" stroke-linejoin="round" stroke-linecap="round" stroke="#ECAA26"/>
         <path id="svg_273" d="m2037.00591,943.21646l17.07144,0" stroke-width="4" stroke-linejoin="round" stroke-linecap="round" stroke="#fff"/>
         <path id="svg_272" d="m1943.34722,960.59312l34.14289,0" stroke-width="4" stroke-linejoin="round" stroke-linecap="round" stroke="#67C7CC"/>
         <path id="svg_271" d="m1989.61354,960.59312l23.50714,0" stroke-width="4" stroke-linejoin="round" stroke-linecap="round" stroke="#74BF44"/>
         <path id="svg_270" d="m1943.34722,977.96018l24.97017,0" stroke-width="4" stroke-linejoin="round" stroke-linecap="round" stroke="#fff"/>
         <path id="svg_269" d="m1978.99423,977.96018l31.57847,0" stroke-width="4" stroke-linejoin="round" stroke-linecap="round" stroke="#67C7CC"/>
         <path id="svg_268" d="m1943.34722,995.33684l12.48509,0" stroke-width="4" stroke-linejoin="round" stroke-linecap="round" stroke="#EC2831"/>
         <path id="svg_267" d="m1965.49817,995.33684l34.15933,0" stroke-width="4" stroke-linejoin="round" stroke-linecap="round" stroke="#74BF44"/>
         <path id="svg_266" d="m2010.76175,995.33684l17.07966,0" stroke-width="4" stroke-linejoin="round" stroke-linecap="round" stroke="#fff"/>
         <path id="svg_265" d="m2020.92078,977.96018l31.57847,0" stroke-width="4" stroke-linejoin="round" stroke-linecap="round" stroke="#67C7CC"/>
         <path id="svg_264" d="m2109.08899,983.7588l-0.15617,0.19201l-3.34525,3.90735a0.75617,0.88323 0 0 0 -0.23836,1.14244a0.73974,0.86403 0 0 0 0.24658,0.31681l4.85759,5.66422l0.16439,0.14401l-1.3644,1.59366l-0.13973,-0.15361c-1.62742,-1.90087 -3.27127,-3.79214 -4.87403,-5.76022a0.83837,0.97924 0 0 0 -1.26577,0c-1.09316,1.29605 -2.21921,2.5921 -3.32881,3.87855l-0.14795,0.24001l-5.60555,-17.76068l15.18923,6.59545l0.00822,0l0.00001,0z" fill="#fff"/>
         <g id="svg_260">
          <ellipse ry="3.82348" rx="4.11759" id="svg_263" cy="853.71106" cx="1936.3179" stroke-opacity="null" stroke-width="null" stroke="#455A7F" fill="#455a7f"/>
          <ellipse ry="3.82348" rx="4.11759" id="svg_262" cy="853.71106" cx="2143.96204" stroke-opacity="null" stroke-width="null" stroke="#455A7F" fill="#455a7f"/>
          <ellipse ry="3.82348" rx="4.11759" id="svg_261" cy="853.71106" cx="2129.84459" stroke-opacity="null" stroke-width="null" stroke="#455A7F" fill="#455a7f"/>
         </g>
        </g>
       </g>
      </g>
      <g id="svg_245">
       <path id="svg_256" d="m1850.58507,913.61373l-73.29132,0a10.17547,11.88525 0 0 0 -10.17547,11.88525l0,117.82528c0,6.56665 4.55348,11.88525 10.17547,11.88525l73.29132,0c5.62199,0 10.17547,-5.3186 10.17547,-11.88525l0,-117.82528c0,-6.56665 -4.55348,-11.88525 -10.17547,-11.88525z" stroke-width="3" stroke-linejoin="round" stroke-linecap="round" stroke="#455A7F" fill="#fff"/>
       <path id="svg_255" d="m1784.28098,941.46846a6.32885,7.39228 0 1 0 0,-14.80376a6.32885,7.39228 0 0 0 0,14.80376z" fill="#455A7F"/>
       <path id="svg_254" d="m1798.91951,934.06658l39.4361,0" stroke-width="3" stroke-linejoin="round" stroke-linecap="round" stroke="#455A7F"/>
       <path id="svg_253" d="m1784.28098,1011.09991a6.32885,7.39228 0 1 0 0,-14.80376a6.32885,7.39228 0 0 0 0,14.80376z" fill="#455A7F"/>
       <path id="svg_252" d="m1798.91951,1003.69803l32.49903,0" stroke-width="3" stroke-linejoin="round" stroke-linecap="round" stroke="#455A7F"/>
       <g id="svg_246">
        <ellipse ry="4.11687" rx="4.50895" id="svg_251" cy="967.16231" cx="1791.08264" stroke-width="2" fill="#60c960"/>
        <ellipse ry="4.11687" rx="4.50895" id="svg_250" cy="951.29002" cx="1791.13103" stroke-width="2" fill="#60c960"/>
        <ellipse ry="4.11687" rx="4.50895" id="svg_249" cy="983.44083" cx="1791.07793" stroke-width="2" fill="#b51313"/>
        <ellipse ry="4.11687" rx="4.50895" id="svg_248" cy="1019.44108" cx="1791.19604" stroke-width="2" fill="#60c960"/>
        <ellipse ry="4.11687" rx="4.50895" id="svg_247" cy="1033.39605" cx="1791.41691" stroke-width="2" fill="#b51313"/>
       </g>
      </g>
     </g>
     <g id="svg_237">
      <g id="svg_240">
       <line stroke-linecap="null" stroke-linejoin="null" id="svg_243" y2="952.50213" x2="1819.27033" y1="952.50213" x1="1800.83826" stroke-width="2" stroke="#455a7f" fill="none"/>
       <line stroke-linecap="null" stroke-linejoin="null" id="svg_242" y2="968.57171" x2="1827.89292" y1="968.57171" x1="1800.4371" fill-opacity="null" stroke-opacity="null" stroke-width="2" stroke="#455a7f" fill="none"/>
       <line stroke-linecap="null" stroke-linejoin="null" id="svg_241" y2="984.74659" x2="1817.62505" y1="984.74659" x1="1800.0709" fill-opacity="null" stroke-opacity="null" stroke-width="2" stroke="#455a7f" fill="none"/>
      </g>
      <line stroke-linecap="null" stroke-linejoin="null" id="svg_239" y2="1020.7832" x2="1820.33492" y1="1020.7832" x1="1801.90285" stroke-width="2" stroke="#455a7f" fill="none"/>
      <line stroke-linecap="null" stroke-linejoin="null" id="svg_238" y2="1034.35383" x2="1828.95751" y1="1034.35383" x1="1801.5017" fill-opacity="null" stroke-opacity="null" stroke-width="2" stroke="#455a7f" fill="none"/>
     </g>
    </g>
   </g>
   <line stroke-linecap="null" stroke-linejoin="null" id="svg_234" y2="1195.57909" x2="2334.60347" y1="1195.57909" x1="1545.39185" stroke-width="6" stroke="#455a7f" fill="none"/>
   <text font-weight="bold" xml:space="preserve" text-anchor="start" font-family="Helvetica, Arial, sans-serif" font-size="12" id="svg_233" y="1142.22291" x="1662.14743" stroke-opacity="null" stroke-width="0" stroke="#455A7F" fill="#ffffff">PYTHON</text>
  </g>
 </g>
</svg>